<?xml version="1.0" encoding="UTF-8"?>
<!DOCTYPE svg PUBLIC "-//W3C//DTD SVG 1.1//EN" "http://www.w3.org/Graphics/SVG/1.1/DTD/svg11.dtd">
<svg xmlns="http://www.w3.org/2000/svg" version="1.1" width="500px" height="500px" style="shape-rendering:geometricPrecision; text-rendering:geometricPrecision; image-rendering:optimizeQuality; fill-rule:evenodd; clip-rule:evenodd" xmlns:xlink="http://www.w3.org/1999/xlink">
<g><path style="opacity:1" fill="#daedfe" d="M -0.5,-0.5 C 166.167,-0.5 332.833,-0.5 499.5,-0.5C 499.5,166.167 499.5,332.833 499.5,499.5C 332.833,499.5 166.167,499.5 -0.5,499.5C -0.5,332.833 -0.5,166.167 -0.5,-0.5 Z"/></g>
<g><path style="opacity:1" fill="#1570ff" d="M 248.5,165.5 C 265.415,180.912 281.915,196.912 298,213.5C 298.244,221.258 295.078,223.091 288.5,219C 275.292,205.959 262.292,192.792 249.5,179.5C 236.708,192.792 223.708,205.959 210.5,219C 203.922,223.091 200.756,221.258 201,213.5C 206.667,207.833 212.333,202.167 218,196.5C 218.333,189.5 218.667,182.5 219,175.5C 221.667,172.833 224.333,172.833 227,175.5C 227.333,179.167 227.667,182.833 228,186.5C 235.036,179.632 241.869,172.632 248.5,165.5 Z"/></g>
<g><path style="opacity:1" fill="#0b6fff" d="M 248.5,187.5 C 262.414,199.911 275.914,212.911 289,226.5C 289.667,240.167 289.667,253.833 289,267.5C 284.599,268.467 280.099,268.8 275.5,268.5C 275.5,256.5 275.5,244.5 275.5,232.5C 268.5,232.5 261.5,232.5 254.5,232.5C 254.5,244.5 254.5,256.5 254.5,268.5C 239.588,268.824 224.755,268.491 210,267.5C 209.333,253.833 209.333,240.167 210,226.5C 223.035,213.632 235.869,200.632 248.5,187.5 Z"/></g>
<g><path style="opacity:1" fill="#99c7ff" d="M 224.5,232.5 C 224.5,237.833 224.5,243.167 224.5,248.5C 230.167,248.5 235.833,248.5 241.5,248.5C 241.5,243.167 241.5,237.833 241.5,232.5C 242.489,237.975 242.822,243.642 242.5,249.5C 236.167,249.5 229.833,249.5 223.5,249.5C 223.178,243.642 223.511,237.975 224.5,232.5 Z"/></g>
<g><path style="opacity:1" fill="#daeefe" d="M 224.5,232.5 C 230.167,232.5 235.833,232.5 241.5,232.5C 241.5,237.833 241.5,243.167 241.5,248.5C 235.833,248.5 230.167,248.5 224.5,248.5C 224.5,243.167 224.5,237.833 224.5,232.5 Z"/></g>
<g><path style="opacity:1" fill="#3c4c61" d="M 124.5,278.5 C 133.81,277.4 140.31,281.067 144,289.5C 146.632,306.533 139.465,314.033 122.5,312C 114.375,306.64 111.542,299.14 114,289.5C 115.711,283.959 119.211,280.292 124.5,278.5 Z"/></g>
<g><path style="opacity:1" fill="#7c8ea1" d="M 208.5,279.5 C 203.833,279.5 199.167,279.5 194.5,279.5C 194.5,290.5 194.5,301.5 194.5,312.5C 193.833,310.5 193.167,308.5 192.5,306.5C 192.5,306.167 192.5,305.833 192.5,305.5C 193.434,304.432 193.768,303.099 193.5,301.5C 193.483,299.435 193.15,297.435 192.5,295.5C 193.489,290.025 193.822,284.358 193.5,278.5C 198.695,278.179 203.695,278.513 208.5,279.5 Z"/></g>
<g><path style="opacity:1" fill="#3d4d62" d="M 208.5,279.5 C 216.708,280.539 221.541,285.206 223,293.5C 224.122,291.376 225.622,289.543 227.5,288C 232.257,287.19 236.924,287.524 241.5,289C 242.701,289.903 243.535,291.069 244,292.5C 244.5,299.158 244.666,305.825 244.5,312.5C 242.167,312.5 239.833,312.5 237.5,312.5C 237.557,308.867 236.557,308.7 234.5,312C 227.741,314.306 223.407,312.139 221.5,305.5C 221.94,302.786 223.274,300.62 225.5,299C 229.084,297.927 232.75,297.26 236.5,297C 238.166,293.869 237.166,292.369 233.5,292.5C 230.068,294.088 226.401,294.755 222.5,294.5C 222.997,303.491 218.997,309.324 210.5,312C 205.177,312.499 199.844,312.666 194.5,312.5C 194.5,301.5 194.5,290.5 194.5,279.5C 199.167,279.5 203.833,279.5 208.5,279.5 Z"/></g>
<g><path style="opacity:1" fill="#85baff" d="M 285.5,279.5 C 280.833,279.5 276.167,279.5 271.5,279.5C 271.5,290.5 271.5,301.5 271.5,312.5C 270.505,301.346 270.172,290.012 270.5,278.5C 275.695,278.179 280.695,278.513 285.5,279.5 Z"/></g>
<g><path style="opacity:1" fill="#0c6fff" d="M 285.5,279.5 C 294.638,280.809 299.472,286.143 300,295.5C 301.875,289.623 305.875,286.956 312,287.5C 318.195,286.871 322.028,289.538 323.5,295.5C 323.5,298.167 323.5,300.833 323.5,303.5C 323.276,307.562 321.276,310.395 317.5,312C 307.642,314.825 301.476,311.325 299,301.5C 297.385,306.904 293.885,310.404 288.5,312C 282.843,312.499 277.176,312.666 271.5,312.5C 271.5,301.5 271.5,290.5 271.5,279.5C 276.167,279.5 280.833,279.5 285.5,279.5 Z"/></g>
<g><path style="opacity:1" fill="#d5e8f9" d="M 126.5,284.5 C 136.181,285.491 139.681,290.824 137,300.5C 134.983,305.924 131.15,307.758 125.5,306C 120.787,301.904 119.287,296.737 121,290.5C 122.36,287.977 124.193,285.977 126.5,284.5 Z"/></g>
<g><path style="opacity:1" fill="#d6e9fa" d="M 201.5,285.5 C 213.523,284.516 217.69,289.85 214,301.5C 213.535,302.931 212.701,304.097 211.5,305C 208.274,306.199 204.941,306.699 201.5,306.5C 201.5,299.5 201.5,292.5 201.5,285.5 Z"/></g>
<g><path style="opacity:1" fill="#3b8dff" d="M 285.5,285.5 C 283.167,285.5 280.833,285.5 278.5,285.5C 278.5,292.5 278.5,299.5 278.5,306.5C 277.508,299.352 277.175,292.019 277.5,284.5C 280.385,284.194 283.052,284.527 285.5,285.5 Z"/></g>
<g><path style="opacity:1" fill="#d6ebff" d="M 285.5,285.5 C 288.675,285.84 290.841,287.507 292,290.5C 294.505,301.824 290.005,307.157 278.5,306.5C 278.5,299.5 278.5,292.5 278.5,285.5C 280.833,285.5 283.167,285.5 285.5,285.5 Z"/></g>
<g><path style="opacity:1" fill="#3b4b60" d="M 145.5,287.5 C 147.833,287.5 150.167,287.5 152.5,287.5C 152.443,291.133 153.443,291.3 155.5,288C 160.526,286.506 164.692,287.673 168,291.5C 168.5,298.492 168.666,305.492 168.5,312.5C 166.167,312.5 163.833,312.5 161.5,312.5C 161.666,306.491 161.499,300.491 161,294.5C 158.034,291.735 155.367,292.068 153,295.5C 152.501,301.157 152.334,306.824 152.5,312.5C 150.167,312.5 147.833,312.5 145.5,312.5C 145.5,304.167 145.5,295.833 145.5,287.5 Z"/></g>
<g><path style="opacity:1" fill="#3b4b60" d="M 192.5,295.5 C 193.15,297.435 193.483,299.435 193.5,301.5C 187.833,301.5 182.167,301.5 176.5,301.5C 176.178,303.722 176.845,305.556 178.5,307C 183.172,306.842 187.839,306.342 192.5,305.5C 192.5,305.833 192.5,306.167 192.5,306.5C 191.746,309.091 190.079,310.924 187.5,312C 172.317,313.812 166.817,307.312 171,292.5C 175.14,287.789 180.306,286.289 186.5,288C 189.817,289.48 191.817,291.98 192.5,295.5 Z"/></g>
<g><path style="opacity:1" fill="#3e4e63" d="M 244.5,287.5 C 246.924,287.192 249.257,287.526 251.5,288.5C 252.972,293.583 254.639,298.583 256.5,303.5C 258.361,298.583 260.028,293.583 261.5,288.5C 263.743,287.526 266.076,287.192 268.5,287.5C 265.308,297.91 261.808,308.243 258,318.5C 254.867,321.877 251.034,323.044 246.5,322C 245.862,320.293 245.862,318.46 246.5,316.5C 248.199,316.66 249.866,316.494 251.5,316C 252.081,315.107 252.415,314.107 252.5,313C 249.925,304.442 247.258,295.942 244.5,287.5 Z"/></g>
<g><path style="opacity:1" fill="#4091ff" d="M 325.5,287.5 C 325.5,295.833 325.5,304.167 325.5,312.5C 324.833,309.5 324.167,306.5 323.5,303.5C 323.5,300.833 323.5,298.167 323.5,295.5C 324.167,292.833 324.833,290.167 325.5,287.5 Z"/></g>
<g><path style="opacity:1" fill="#096fff" d="M 325.5,287.5 C 327.5,287.5 329.5,287.5 331.5,287.5C 331.343,288.873 331.51,290.207 332,291.5C 332.465,290.069 333.299,288.903 334.5,288C 339.212,286.557 343.045,287.723 346,291.5C 346.5,289.667 347.667,288.5 349.5,288C 354.212,286.557 358.045,287.723 361,291.5C 361.5,298.492 361.666,305.492 361.5,312.5C 359.167,312.5 356.833,312.5 354.5,312.5C 354.666,306.491 354.499,300.491 354,294.5C 351.667,291.833 349.333,291.833 347,294.5C 346.501,300.491 346.334,306.491 346.5,312.5C 344.167,312.5 341.833,312.5 339.5,312.5C 339.666,306.491 339.499,300.491 339,294.5C 336.368,291.808 334.034,292.141 332,295.5C 331.501,301.157 331.334,306.824 331.5,312.5C 329.5,312.5 327.5,312.5 325.5,312.5C 325.5,304.167 325.5,295.833 325.5,287.5 Z"/></g>
<g><path style="opacity:1" fill="#d1e4f5" d="M 178.5,292.5 C 183.175,291.339 185.841,293.006 186.5,297.5C 183.167,297.5 179.833,297.5 176.5,297.5C 176.392,295.486 177.058,293.82 178.5,292.5 Z"/></g>
<g><path style="opacity:1" fill="#d0e7ff" d="M 309.5,292.5 C 316.063,292.589 318.563,295.922 317,302.5C 316.252,306.914 313.752,308.414 309.5,307C 305.547,302.169 305.547,297.335 309.5,292.5 Z"/></g>
<g><path style="opacity:1" fill="#cee0f2" d="M 231.5,301.5 C 233.5,301.5 235.5,301.5 237.5,301.5C 237.777,305.223 236.11,307.556 232.5,308.5C 227.662,306.679 227.329,304.346 231.5,301.5 Z"/></g>
<g><path style="opacity:1" fill="#ccdff0" d="M 193.5,301.5 C 193.768,303.099 193.434,304.432 192.5,305.5C 187.839,306.342 183.172,306.842 178.5,307C 176.845,305.556 176.178,303.722 176.5,301.5C 182.167,301.5 187.833,301.5 193.5,301.5 Z"/></g>
</svg>
